Coordinates
version=1
nRows=30
nColumns=21
inDegrees=yes

Units are S.I. units (second, meters, Newtons, ...)
If the header above contains a line with 'inDegrees', this indicates whether rotational values are in degrees (yes) or radians (no).

endheader
time	sternoclavicular_r2	sternoclavicular_r3	unrotscap_r3	unrotscap_r2	acromioclavicular_r2	acromioclavicular_r3	acromioclavicular_r1	unrothum_r1	unrothum_r3	unrothum_r2	elv_angle	shoulder_elev	shoulder1_r2	shoulder_rot	elbow_flexion	pro_sup	deviation	flexion	wrist_hand_r1	wrist_hand_r3
      5.05050505	     -5.33021560	      2.25762775	     -2.25762775	      5.33021560	     -1.07926023	      8.72220157	      3.92056958	     -3.92056958	     -8.72220157	      1.07926023	    -70.29913929	     22.02563492	     70.29913929	     14.26832378	    102.49025344	      0.00000000	      0.00000000	     -0.00000000	     -0.00000000	      0.00000000
      5.15151515	     -5.23376488	      2.21677578	     -2.21677578	      5.23376488	     -1.05973092	      8.56437257	      3.84962653	     -3.84962653	     -8.56437257	      1.05973092	    -70.11671123	     21.62707912	     70.11671123	     13.94833966	    100.63864743	      0.00000000	      0.00000000	     -0.00000000	     -0.00000000	      0.00000000
      5.25252525	     -5.12895897	      2.17238495	     -2.17238495	      5.12895897	     -1.03850986	      8.39287139	      3.77253793	     -3.77253793	     -8.39287139	      1.03850986	    -69.93122565	     21.19399783	     69.93122565	     13.63495748	     98.76059549	      0.00000000	      0.00000000	     -0.00000000	     -0.00000000	      0.00000000
      5.35353535	     -5.01608105	      2.12457519	     -2.12457519	      5.01608105	     -1.01565438	      8.20816142	      3.68951207	     -3.68951207	     -8.20816142	      1.01565438	    -69.74270543	     20.72756120	     69.74270543	     13.32693920	     96.85802540	      0.00000000	      0.00000000	     -0.00000000	     -0.00000000	      0.00000000
      5.45454545	     -4.89542267	      2.07346999	     -2.07346999	      4.89542267	     -0.99122351	      8.01071974	      3.60076339	     -3.60076339	     -8.01071974	      0.99122351	    -69.55112956	     20.22897396	     69.55112956	     13.02297280	     94.93291631	      0.00000000	      0.00000000	     -0.00000000	     -0.00000000	      0.00000000
      5.55555556	     -4.76728333	      2.01919622	     -2.01919622	      4.76728333	     -0.96527790	      7.80103645	      3.50651220	     -3.50651220	     -7.80103645	      0.96527790	    -69.35645109	     19.69947374	     69.35645109	     12.72166819	     92.98730368	      0.00000000	      0.00000000	     -0.00000000	     -0.00000000	      0.00000000
      5.65656566	     -4.63197042	      1.96188405	     -1.96188405	      4.63197042	     -0.93787979	      7.57961455	      3.40698457	     -3.40698457	     -7.57961455	      0.93787979	    -69.15861417	     19.14033074	     69.15861417	     12.42155477	     91.02328375	      0.00000000	      0.00000000	     -0.00000000	     -0.00000000	      0.00000000
      5.75757576	     -4.48979920	      1.90166703	     -1.90166703	      4.48979920	     -0.90909301	      7.34696991	      3.30241241	     -3.30241241	     -7.34696991	      0.90909301	    -68.95757058	     18.55284766	     68.95757058	     12.12108017	     89.04301739	      0.00000000	      0.00000000	     -0.00000000	     -0.00000000	      0.00000000
      5.85858586	     -4.34109247	      1.83868188	     -1.83868188	      4.34109247	     -0.87898292	      7.10363077	      3.19303314	     -3.19303314	     -7.10363077	      0.87898292	    -68.75329373	     17.93835841	     68.75329373	     11.81860866	     87.04873524	      0.00000000	      0.00000000	     -0.00000000	     -0.00000000	      0.00000000
      5.95959596	     -4.18618003	      1.77306828	     -1.77306828	      4.18618003	     -0.84761630	      6.85013680	      3.07908935	     -3.07908935	     -6.85013680	      0.84761630	    -68.54579482	     17.29822580	     68.54579482	     11.51241737	     85.04274334	      0.00000000	      0.00000000	     -0.00000000	     -0.00000000	      0.00000000
      6.06060606	     -4.02539769	      1.70496847	     -1.70496847	      4.02539769	     -0.81506115	      6.58703751	      2.96082803	     -2.96082803	     -6.58703751	      0.81506115	    -68.33513927	     16.63383747	     68.33513927	     11.20068659	     83.02743450	      0.00000000	      0.00000000	     -0.00000000	     -0.00000000	      0.00000000
      6.16161616	     -3.85867663	      1.63435330	     -1.63435330	      3.85867663	     -0.78130353	      6.31422026	      2.83819855	     -2.83819855	     -6.31422026	      0.78130353	    -68.12697072	     15.94490900	     68.12697072	     10.87761005	     81.00803995	      0.00000000	      0.00000000	     -0.00000000	     -0.00000000	      0.00000000
      6.26262626	     -3.68694595	      1.56161629	     -1.56161629	      3.68694595	     -0.74653156	      6.03320544	      2.71188432	     -2.71188432	     -6.03320544	      0.74653156	    -67.91698405	     15.23527968	     67.91698405	     10.54555228	     78.98336822	      0.00000000	      0.00000000	     -0.00000000	     -0.00000000	      0.00000000
      6.36363636	     -3.51037606	      1.48682962	     -1.48682962	      3.51037606	     -0.71077974	      5.74427188	      2.58201068	     -2.58201068	     -5.74427188	      0.71077974	    -67.70480611	     14.50565367	     67.70480611	     10.20189877	     76.95723384	      0.00000000	      0.00000000	     -0.00000000	     -0.00000000	      0.00000000
      6.46464646	     -3.32931989	      1.41014277	     -1.41014277	      3.32931989	     -0.67411956	      5.44799712	      2.44883721	     -2.44883721	     -5.44799712	      0.67411956	    -67.49065304	     13.75748939	     67.49065304	      9.84456083	     74.93240855	      0.00000000	      0.00000000	     -0.00000000	     -0.00000000	      0.00000000
      6.56565657	     -3.14413328	      1.33170646	     -1.33170646	      3.14413328	     -0.63662303	      5.14496341	      2.31262564	     -2.31262564	     -5.14496341	      0.63662303	    -67.27486868	     12.99225715	     67.27486868	      9.47133940	     72.91178929	      0.00000000	      0.00000000	     -0.00000000	     -0.00000000	      0.00000000
      6.66666667	     -2.95517455	      1.25167246	     -1.25167246	      2.95517455	     -0.59836273	      4.83575713	      2.17363955	     -2.17363955	     -4.83575713	      0.59836273	    -67.05799469	     12.21143771	     67.05799469	      9.07991169	     70.89840860	      0.00000000	      0.00000000	     -0.00000000	     -0.00000000	      0.00000000
      6.76767677	     -2.76280479	      1.17019371	     -1.17019371	      2.76280479	     -0.55941177	      4.52096916	      2.03214452	     -2.03214452	     -4.52096916	      0.55941177	    -66.84087187	     11.41652315	     66.84087187	      8.66781956	     68.89544951	      0.00000000	      0.00000000	     -0.00000000	     -0.00000000	      0.00000000
      6.86868687	     -2.56738877	      1.08742471	     -1.08742471	      2.56738877	     -0.51984400	      4.20119637	      1.88840885	     -1.88840885	     -4.20119637	      0.51984400	    -66.62476363	     10.60902074	     66.62476363	      8.23247335	     66.90626397	      0.00000000	      0.00000000	     -0.00000000	     -0.00000000	      0.00000000
      6.96969697	     -2.36930898	      1.00352746	     -1.00352746	      2.36930898	     -0.47973687	      3.87706465	      1.74271388	     -1.74271388	     -3.87706465	      0.47973687	    -66.41173316	      9.79051102	     66.41173316	      7.77107761	     64.93445313	      0.00000000	      0.00000000	     -0.00000000	     -0.00000000	      0.00000000
      7.07070707	     -2.16901665	      0.91869308	     -0.91869308	      2.16901665	     -0.43918175	      3.54931241	      1.59539150	     -1.59539150	     -3.54931241	      0.43918175	    -66.20489046	      8.96285861	     66.20489046	      7.28073205	     62.98417414	      0.00000000	      0.00000000	     -0.00000000	     -0.00000000	      0.00000000
      7.17171717	     -1.96710802	      0.83317411	     -0.83317411	      1.96710802	     -0.39829936	      3.21891532	      1.44688028	     -1.44688028	     -3.21891532	      0.39829936	    -66.00852565	      8.12852731	     66.00852565	      6.75978504	     61.06058684	      0.00000000	      0.00000000	     -0.00000000	     -0.00000000	      0.00000000
      7.27272727	     -1.76377491	      0.74705181	     -0.74705181	      1.76377491	     -0.35712854	      2.88618725	      1.29732130	     -1.29732130	     -2.88618725	      0.35712854	    -65.81058296	      7.28830973	     65.81058296	      6.20228549	     59.16172499	      0.00000000	      0.00000000	     -0.00000000	     -0.00000000	      0.00000000
      7.37373737	     -1.55926720	      0.66043199	     -0.66043199	      1.55926720	     -0.31571989	      2.55153709	      1.14689836	     -1.14689836	     -2.55153709	      0.31571989	    -65.62297421	      6.44323845	     65.62297421	      5.61239316	     57.29837431	      0.00000000	      0.00000000	     -0.00000000	     -0.00000000	      0.00000000
      7.47474747	     -1.36561535	      0.57841021	     -0.57841021	      1.36561535	     -0.27650933	      2.23465114	      1.00446031	     -1.00446031	     -2.23465114	      0.27650933	    -64.60580044	      5.64302600	     64.60580044	      5.14884693	     55.46158873	      0.00000000	      0.00000000	     -0.00000000	     -0.00000000	      0.00000000
      7.57575758	     -1.17085256	      0.49591788	     -0.49591788	      1.17085256	     -0.23707383	      1.91594727	      0.86120511	     -0.86120511	     -1.91594727	      0.23707383	    -63.62367385	      4.83822288	     63.62367385	      4.61546826	     53.68229227	      0.00000000	      0.00000000	     -0.00000000	     -0.00000000	      0.00000000
      7.67676768	     -0.97366906	      0.41240026	     -0.41240026	      0.97366906	     -0.19714818	      1.59328223	      0.71616940	     -0.71616940	     -1.59328223	      0.19714818	    -62.64499543	      4.02341685	     62.64499543	      4.00005032	     51.94383421	      0.00000000	      0.00000000	     -0.00000000	     -0.00000000	      0.00000000
      7.77777778	     -0.77571069	      0.32855444	     -0.32855444	      0.77571069	     -0.15706564	      1.26934922	      0.57056374	     -0.57056374	     -1.26934922	      0.15706564	    -61.62629003	      3.20540890	     61.62629003	      3.30474942	     50.25906604	      0.00000000	      0.00000000	     -0.00000000	     -0.00000000	      0.00000000
      7.87878788	     -0.58403303	      0.24736883	     -0.24736883	      0.58403303	     -0.11825481	      0.95569377	      0.42957777	     -0.42957777	     -0.95569377	      0.11825481	    -59.87428318	      2.41335422	     59.87428318	      2.60816118	     48.64880459	      0.00000000	      0.00000000	     -0.00000000	     -0.00000000	      0.00000000
      7.97979798	     -0.38556363	      0.16330656	     -0.16330656	      0.38556363	     -0.07806879	      0.63092452	      0.28359623	     -0.28359623	     -0.63092452	      0.07806879	    -58.65003497	      1.59323459	     58.65003497	      1.72607829	     47.10796520	      0.00000000	      0.00000000	     -0.00000000	     -0.00000000	      0.00000000
